<svg width="30" height="26" viewBox="0 0 30 26" fill="none" xmlns="http://www.w3.org/2000/svg">
<path d="M1.875 4.30249C3.53437 3.60874 5.91375 2.86061 8.2275 2.62811C10.7213 2.37686 12.8363 2.74624 14.0625 4.03812V22.3119C12.3094 21.3181 10.0875 21.1812 8.03813 21.3875C5.82563 21.6125 3.59437 22.2519 1.875 22.9081V4.30249ZM15.9375 4.03812C17.1637 2.74624 19.2788 2.37686 21.7725 2.62811C24.0863 2.86061 26.4656 3.60874 28.125 4.30249V22.9081C26.4037 22.2519 24.1744 21.6106 21.9619 21.3894C19.9106 21.1812 17.6906 21.3162 15.9375 22.3119V4.03812ZM15 2.34311C13.1531 0.75499 10.4756 0.51874 8.03813 0.76249C5.19938 1.04937 2.33438 2.02249 0.549375 2.83437C0.385592 2.90885 0.246704 3.0289 0.149289 3.18018C0.051875 3.33145 4.98214e-05 3.50756 0 3.68749L0 24.3125C4.34287e-05 24.4693 0.0394446 24.6237 0.114595 24.7614C0.189744 24.8991 0.298241 25.0157 0.430145 25.1006C0.56205 25.1855 0.713146 25.2359 0.869594 25.2473C1.02604 25.2586 1.18284 25.2306 1.32563 25.1656C2.97938 24.4156 5.64375 23.5137 8.22563 23.2531C10.8675 22.9869 13.0819 23.4162 14.2688 24.8975C14.3566 25.007 14.4679 25.0954 14.5945 25.1561C14.721 25.2168 14.8596 25.2483 15 25.2483C15.1404 25.2483 15.279 25.2168 15.4055 25.1561C15.5321 25.0954 15.6434 25.007 15.7313 24.8975C16.9181 23.4162 19.1325 22.9869 21.7725 23.2531C24.3563 23.5137 27.0225 24.4156 28.6744 25.1656C28.8172 25.2306 28.974 25.2586 29.1304 25.2473C29.2869 25.2359 29.438 25.1855 29.5699 25.1006C29.7018 25.0157 29.8103 24.8991 29.8854 24.7614C29.9606 24.6237 30 24.4693 30 24.3125V3.68749C30 3.50756 29.9481 3.33145 29.8507 3.18018C29.7533 3.0289 29.6144 2.90885 29.4506 2.83437C27.6656 2.02249 24.8006 1.04937 21.9619 0.76249C19.5244 0.516865 16.8469 0.75499 15 2.34311Z" fill="#F8F8F8"/>
</svg>
