<svg width="23" height="23" viewBox="0 0 23 23" fill="none" xmlns="http://www.w3.org/2000/svg">
<path d="M3.84962 17.0976C3.99883 17.2474 4.11317 17.4282 4.18448 17.6273C4.25579 17.8263 4.28232 18.0386 4.26219 18.2491C4.16116 19.2231 3.96962 20.1856 3.69006 21.1241C5.69537 20.6597 6.92013 20.1221 7.47644 19.8404C7.79197 19.6806 8.15535 19.6427 8.49706 19.734C9.47662 19.9951 10.4862 20.1266 11.5 20.125C17.2442 20.125 21.5625 16.0899 21.5625 11.5C21.5625 6.9115 17.2442 2.875 11.5 2.875C5.75575 2.875 1.4375 6.9115 1.4375 11.5C1.4375 13.6102 2.32444 15.5681 3.84962 17.0976ZM3.14094 22.7111C2.80035 22.7786 2.45865 22.8404 2.116 22.8965C1.8285 22.9425 1.61 22.6435 1.72356 22.3761C1.8512 22.0751 1.96819 21.7697 2.07431 21.4604L2.07862 21.4461C2.43512 20.4111 2.7255 19.2208 2.83188 18.1125C1.06806 16.3444 0 14.03 0 11.5C0 5.94262 5.14912 1.4375 11.5 1.4375C17.8509 1.4375 23 5.94262 23 11.5C23 17.0574 17.8509 21.5625 11.5 21.5625C10.361 21.564 9.22672 21.4161 8.12619 21.1226C7.37869 21.5007 5.77012 22.1892 3.14094 22.7111Z" fill="white" fill-opacity="0.75"/>
</svg>
