<svg width="27" height="27" viewBox="0 0 27 27" fill="none" xmlns="http://www.w3.org/2000/svg">
<path d="M21.375 6.75H18V5.625C18 5.02826 17.7629 4.45597 17.341 4.03401C16.919 3.61205 16.3467 3.375 15.75 3.375H11.25C10.6533 3.375 10.081 3.61205 9.65901 4.03401C9.23705 4.45597 9 5.02826 9 5.625V6.75H5.625C4.72989 6.75 3.87145 7.10558 3.23851 7.73851C2.60558 8.37145 2.25 9.22989 2.25 10.125V20.25C2.25 21.1451 2.60558 22.0036 3.23851 22.6365C3.87145 23.2694 4.72989 23.625 5.625 23.625H21.375C22.2701 23.625 23.1285 23.2694 23.7615 22.6365C24.3944 22.0036 24.75 21.1451 24.75 20.25V10.125C24.75 9.22989 24.3944 8.37145 23.7615 7.73851C23.1285 7.10558 22.2701 6.75 21.375 6.75ZM11.25 5.625H15.75V6.75H11.25V5.625ZM22.5 20.25C22.5 20.5484 22.3815 20.8345 22.1705 21.0455C21.9595 21.2565 21.6734 21.375 21.375 21.375H5.625C5.32663 21.375 5.04048 21.2565 4.82951 21.0455C4.61853 20.8345 4.5 20.5484 4.5 20.25V13.9388L9.765 15.75C9.88445 15.7662 10.0055 15.7662 10.125 15.75H16.875C16.997 15.7477 17.1181 15.7288 17.235 15.6937L22.5 13.9388V20.25ZM22.5 11.565L16.695 13.5H10.305L4.5 11.565V10.125C4.5 9.82663 4.61853 9.54048 4.82951 9.32951C5.04048 9.11853 5.32663 9 5.625 9H21.375C21.6734 9 21.9595 9.11853 22.1705 9.32951C22.3815 9.54048 22.5 9.82663 22.5 10.125V11.565Z" fill="white" fill-opacity="0.7"/>
</svg>
