<svg width="25" height="25" viewBox="0 0 25 25" fill="none" xmlns="http://www.w3.org/2000/svg">
<g opacity="0.7">
<path d="M21.875 19.7917V12.7781C21.875 12.213 21.76 11.6537 21.5371 11.1344C21.3141 10.6151 20.9879 10.1465 20.5781 9.75729L13.9354 3.44792C13.5482 3.08009 13.0346 2.875 12.5005 2.875C11.9665 2.875 11.4528 3.08009 11.0656 3.44792L4.42187 9.75729C4.01214 10.1465 3.68587 10.6151 3.46292 11.1344C3.23997 11.6537 3.125 12.213 3.125 12.7781V19.7917C3.125 20.3442 3.34449 20.8741 3.73519 21.2648C4.12589 21.6555 4.6558 21.875 5.20833 21.875H19.7917C20.3442 21.875 20.8741 21.6555 21.2648 21.2648C21.6555 20.8741 21.875 20.3442 21.875 19.7917Z" stroke="white" stroke-width="2" stroke-linecap="round" stroke-linejoin="round"/>
</g>
</svg>
