<svg width="25" height="25" viewBox="0 0 25 25" fill="none" xmlns="http://www.w3.org/2000/svg">
<path d="M12.5002 6.24998C12.2239 6.24998 11.9589 6.35973 11.7636 6.55508C11.5682 6.75043 11.4585 7.01538 11.4585 7.29165V17.7083C11.4585 17.9846 11.5682 18.2495 11.7636 18.4449C11.9589 18.6402 12.2239 18.75 12.5002 18.75C12.7764 18.75 13.0414 18.6402 13.2367 18.4449C13.4321 18.2495 13.5418 17.9846 13.5418 17.7083V7.29165C13.5418 7.01538 13.4321 6.75043 13.2367 6.55508C13.0414 6.35973 12.7764 6.24998 12.5002 6.24998ZM7.29183 12.5C7.01556 12.5 6.75061 12.6097 6.55526 12.8051C6.35991 13.0004 6.25016 13.2654 6.25016 13.5416V17.7083C6.25016 17.9846 6.35991 18.2495 6.55526 18.4449C6.75061 18.6402 7.01556 18.75 7.29183 18.75C7.5681 18.75 7.83305 18.6402 8.0284 18.4449C8.22375 18.2495 8.3335 17.9846 8.3335 17.7083V13.5416C8.3335 13.2654 8.22375 13.0004 8.0284 12.8051C7.83305 12.6097 7.5681 12.5 7.29183 12.5ZM17.7085 10.4166C17.4322 10.4166 17.1673 10.5264 16.9719 10.7217C16.7766 10.9171 16.6668 11.182 16.6668 11.4583V17.7083C16.6668 17.9846 16.7766 18.2495 16.9719 18.4449C17.1673 18.6402 17.4322 18.75 17.7085 18.75C17.9848 18.75 18.2497 18.6402 18.4451 18.4449C18.6404 18.2495 18.7502 17.9846 18.7502 17.7083V11.4583C18.7502 11.182 18.6404 10.9171 18.4451 10.7217C18.2497 10.5264 17.9848 10.4166 17.7085 10.4166ZM19.7918 2.08331H5.2085C4.37969 2.08331 3.58484 2.41255 2.99879 2.9986C2.41274 3.58466 2.0835 4.37951 2.0835 5.20831V19.7916C2.0835 20.6204 2.41274 21.4153 2.99879 22.0014C3.58484 22.5874 4.37969 22.9166 5.2085 22.9166H19.7918C20.6206 22.9166 21.4155 22.5874 22.0015 22.0014C22.5876 21.4153 22.9168 20.6204 22.9168 19.7916V5.20831C22.9168 4.37951 22.5876 3.58466 22.0015 2.9986C21.4155 2.41255 20.6206 2.08331 19.7918 2.08331ZM20.8335 19.7916C20.8335 20.0679 20.7238 20.3329 20.5284 20.5282C20.3331 20.7236 20.0681 20.8333 19.7918 20.8333H5.2085C4.93223 20.8333 4.66728 20.7236 4.47193 20.5282C4.27658 20.3329 4.16683 20.0679 4.16683 19.7916V5.20831C4.16683 4.93205 4.27658 4.66709 4.47193 4.47174C4.66728 4.27639 4.93223 4.16665 5.2085 4.16665H19.7918C20.0681 4.16665 20.3331 4.27639 20.5284 4.47174C20.7238 4.66709 20.8335 4.93205 20.8335 5.20831V19.7916Z" fill="white" fill-opacity="0.75"/>
</svg>
