<svg width="25" height="25" viewBox="0 0 25 25" fill="none" xmlns="http://www.w3.org/2000/svg">
<path fill-rule="evenodd" clip-rule="evenodd" d="M11.6656 2.69475C11.9209 2.55301 12.208 2.47864 12.5 2.47864C12.792 2.47864 13.0791 2.55301 13.3344 2.69475L20.8344 6.86142C21.3802 7.16454 21.7188 7.73954 21.7188 8.36454V16.6354C21.7188 17.2604 21.3802 17.8354 20.8344 18.1385L13.3344 22.3052C13.0791 22.4469 12.792 22.5213 12.5 22.5213C12.208 22.5213 11.9209 22.4469 11.6656 22.3052L4.16562 18.1385C3.89752 17.9896 3.67414 17.7717 3.51863 17.5074C3.36312 17.2431 3.28116 16.942 3.28125 16.6354V8.36454C3.28125 7.73954 3.61979 7.16454 4.16562 6.86142L11.6656 2.69475ZM12.576 4.06142C12.5528 4.04846 12.5266 4.04167 12.5 4.04167C12.4734 4.04167 12.4472 4.04846 12.424 4.06142L4.92396 8.22808C4.8998 8.24154 4.87965 8.26117 4.86556 8.28496C4.85147 8.30875 4.84394 8.33585 4.84375 8.3635V16.6354C4.84375 16.6927 4.875 16.7448 4.92396 16.7729L12.424 20.9395C12.4472 20.9525 12.4734 20.9593 12.5 20.9593C12.5266 20.9593 12.5528 20.9525 12.576 20.9395L20.076 16.7729C20.1005 16.7592 20.1209 16.7393 20.135 16.7151C20.1491 16.6909 20.1564 16.6634 20.1562 16.6354V8.36454C20.1562 8.33672 20.1488 8.30939 20.1347 8.28541C20.1206 8.26142 20.1004 8.24163 20.076 8.22808L12.576 4.06142Z" fill="white" fill-opacity="0.75"/>
<path fill-rule="evenodd" clip-rule="evenodd" d="M7.55225 12.4999C7.55225 11.1876 8.07354 9.92913 9.00146 9.00121C9.92937 8.0733 11.1879 7.552 12.5002 7.552C13.8124 7.552 15.071 8.0733 15.9989 9.00121C16.9268 9.92913 17.4481 11.1876 17.4481 12.4999C17.4481 13.8122 16.9268 15.0707 15.9989 15.9986C15.071 16.9265 13.8124 17.4478 12.5002 17.4478C11.1879 17.4478 9.92937 16.9265 9.00146 15.9986C8.07354 15.0707 7.55225 13.8122 7.55225 12.4999ZM12.5002 9.1145C11.6023 9.1145 10.7412 9.47118 10.1063 10.1061C9.47142 10.741 9.11475 11.6021 9.11475 12.4999C9.11475 13.3978 9.47142 14.2589 10.1063 14.8938C10.7412 15.5287 11.6023 15.8853 12.5002 15.8853C13.398 15.8853 14.2591 15.5287 14.894 14.8938C15.5289 14.2589 15.8856 13.3978 15.8856 12.4999C15.8856 11.6021 15.5289 10.741 14.894 10.1061C14.2591 9.47118 13.398 9.1145 12.5002 9.1145Z" fill="white" fill-opacity="0.75"/>
</svg>
