<svg width="209" height="201" viewBox="0 0 209 201" fill="none" xmlns="http://www.w3.org/2000/svg">
<path d="M202.53 32.41L106.53 0.409983C104.888 -0.137475 103.112 -0.137475 101.47 0.409983L5.47 32.41C3.87705 32.941 2.49157 33.9598 1.50983 35.322C0.528097 36.6842 -0.000124423 38.3209 2.19836e-08 40V120C2.19836e-08 122.122 0.842854 124.157 2.34315 125.657C3.84344 127.157 5.87827 128 8 128C10.1217 128 12.1566 127.157 13.6569 125.657C15.1571 124.157 16 122.122 16 120V51.1L49.59 62.29C40.6656 76.708 37.8277 94.0784 41.6994 110.587C45.5711 127.096 55.8359 141.393 70.24 150.34C52.24 157.4 36.68 170.17 25.3 187.63C24.7082 188.51 24.2971 189.498 24.0906 190.538C23.8842 191.578 23.8865 192.649 24.0974 193.688C24.3084 194.727 24.7237 195.713 25.3193 196.59C25.915 197.467 26.679 198.217 27.567 198.797C28.455 199.376 29.4493 199.773 30.4921 199.964C31.5348 200.156 32.6053 200.138 33.6412 199.912C34.677 199.687 35.6577 199.257 36.5262 198.649C37.3946 198.041 38.1336 197.266 38.7 196.37C53.77 173.25 77.57 160 104 160C130.43 160 154.23 173.25 169.3 196.37C170.473 198.114 172.286 199.326 174.346 199.744C176.406 200.162 178.547 199.753 180.308 198.605C182.068 197.457 183.306 195.661 183.754 193.608C184.202 191.554 183.823 189.407 182.7 187.63C171.32 170.17 155.7 157.4 137.76 150.34C152.15 141.393 162.405 127.105 166.276 110.609C170.148 94.1122 167.319 76.7538 158.41 62.34L202.53 47.64C204.123 47.1093 205.509 46.0906 206.491 44.7284C207.473 43.3661 208.002 41.7293 208.002 40.05C208.002 38.3706 207.473 36.7339 206.491 35.3716C205.509 34.0094 204.123 32.9907 202.53 32.46V32.41ZM152 96C152.002 103.589 150.205 111.069 146.756 117.829C143.307 124.589 138.305 130.434 132.159 134.886C126.014 139.338 118.9 142.269 111.403 143.439C103.905 144.61 96.2364 143.986 89.0265 141.618C81.8166 139.251 75.2707 135.208 69.9259 129.821C64.5811 124.434 60.5897 117.857 58.2791 110.629C55.9685 103.4 55.4047 95.7273 56.6338 88.2389C57.863 80.7506 60.85 73.6604 65.35 67.55L101.47 79.55C103.112 80.0974 104.888 80.0974 106.53 79.55L142.65 67.55C148.728 75.7899 152.005 85.761 152 96ZM104 63.57L33.3 40L104 16.43L174.7 40L104 63.57Z" fill="white"/>
</svg>
